# xmcd
#
# Track frame offsets: 
#        150
#        22438
#        45282
#        66870
#        89614
#        109294
#        128530
#        148690
#        173362
#        197422
#        216966
#        234902
#        250518
#
# Disc length: 3644 seconds
#
# Revision: 0
# Processed by: cddbd v1.5.2PL0 Copyright (c) Steve Scherf et al.
# Submitted via: ExactAudioCopyFreeDBPlugin 1.0
#
DISCID=ad0e3a0d
DTITLE=小月 - DTSES惊叹No.1
DYEAR=2008
DGENRE=DTSES
TTITLE0=自由飞翔
TTITLE1=九九艳阳天
TTITLE2=问候你
TTITLE3=达古拉
TTITLE4=家乡美
TTITLE5=吉祥如意
TTITLE6=花好月圆
TTITLE7=牵挂
TTITLE8=常回家看看
TTITLE9=好运来
TTITLE10=家和万事兴
TTITLE11=人间第一情
TTITLE12=向着太阳
EXTD=
EXTT0=
EXTT1=
EXTT2=
EXTT3=
EXTT4=
EXTT5=
EXTT6=
EXTT7=
EXTT8=
EXTT9=
EXTT10=
EXTT11=
EXTT12=
PLAYORDER=
